<?xml version="1.0" standalone="no"?>
<!DOCTYPE svg PUBLIC "-//W3C//DTD SVG 20010904//EN"
 "http://www.w3.org/TR/2001/REC-SVG-20010904/DTD/svg10.dtd">
<svg version="1.0" xmlns="http://www.w3.org/2000/svg"
 width="386.000000pt" height="102.000000pt" viewBox="0 0 386.000000 102.000000"
 preserveAspectRatio="xMidYMid meet">

<g transform="translate(0.000000,102.000000) scale(0.100000,-0.100000)"
fill="#000000" stroke="none">
<path d="M396 989 c-35 -28 -46 -49 -142 -291 l-82 -208 270 0 c253 0 270 -1
264 -17 -4 -10 -30 -78 -59 -150 l-52 -133 -144 0 c-110 0 -142 3 -138 13 2 6
7 22 11 35 l8 23 -128 -3 -127 -3 -33 -85 c-38 -97 -40 -112 -18 -135 14 -14
56 -15 371 -13 l355 3 28 33 c17 20 72 146 138 310 l110 277 -270 3 c-148 1
-268 6 -266 10 2 5 16 43 33 85 l30 77 271 0 271 0 28 71 c22 58 25 75 16 95
l-11 24 -353 0 c-344 0 -355 -1 -381 -21z"/>
<path d="M2741 593 c-8 -21 -16 -44 -18 -50 -4 -9 9 -13 46 -13 l52 0 19 46
c11 25 20 48 20 50 0 2 -24 4 -53 4 -52 0 -53 -1 -66 -37z"/>
<path d="M1652 420 c2 -8 15 -15 28 -15 13 0 26 7 28 15 5 13 3 13 -11 1 -14
-11 -20 -11 -34 0 -14 12 -16 12 -11 -1z"/>
<path d="M1140 320 c0 -33 4 -60 10 -60 6 0 10 25 10 55 0 52 1 55 25 55 24 0
25 -3 25 -55 0 -30 5 -55 10 -55 6 0 10 27 10 60 l0 60 -45 0 -45 0 0 -60z"/>
<path d="M1272 368 c-16 -16 -15 -33 3 -48 14 -12 14 -15 0 -30 -17 -18 -19
-30 -7 -30 5 0 15 11 22 25 18 33 38 32 43 -2 2 -16 5 0 6 35 1 62 1 62 -27
62 -15 0 -33 -5 -40 -12z m58 -23 c0 -18 -5 -25 -19 -25 -11 0 -23 5 -26 10
-11 18 3 40 25 40 15 0 20 -7 20 -25z"/>
<path d="M1378 373 c20 -4 22 -10 22 -59 0 -30 5 -54 10 -54 6 0 10 24 10 54
0 44 4 55 18 59 9 3 -5 5 -33 4 -27 0 -40 -2 -27 -4z"/>
<path d="M1470 320 c0 -57 1 -60 24 -60 41 0 56 11 56 40 0 23 -5 30 -30 35
-21 5 -30 13 -30 26 0 10 -4 19 -10 19 -6 0 -10 -27 -10 -60z m66 -11 c8 -14
-21 -43 -35 -35 -19 12 -13 46 8 46 11 0 23 -5 27 -11z"/>
<path d="M1583 320 c0 -36 2 -50 4 -32 2 17 2 47 0 65 -2 17 -4 3 -4 -33z"/>
<path d="M1630 318 l1 -63 29 35 c17 19 30 38 30 42 0 4 4 8 9 8 6 0 12 -19
14 -42 2 -32 4 -26 5 22 1 71 0 71 -50 -1 l-17 -24 0 43 c-1 23 -5 42 -11 42
-6 0 -10 -27 -10 -62z"/>
<path d="M1820 373 c0 -5 12 -9 27 -8 34 0 42 -22 12 -34 l-24 -8 23 -7 c12
-4 22 -13 22 -21 0 -16 -35 -29 -50 -20 -5 3 -10 1 -10 -4 0 -16 56 -13 70 4
7 9 9 22 4 32 -4 10 -8 29 -8 43 -1 21 -7 26 -33 28 -18 2 -33 -1 -33 -5z"/>
<path d="M1930 373 c0 -5 12 -9 27 -8 40 0 43 -31 3 -38 -60 -13 -46 -69 17
-64 l34 2 -3 55 -3 55 -37 3 c-21 2 -38 -1 -38 -5z m60 -72 c0 -20 -25 -35
-41 -25 -13 8 -11 32 4 37 25 11 37 7 37 -12z"/>
<path d="M2050 320 c0 -57 1 -60 24 -60 13 0 31 3 40 6 18 7 22 54 5 54 -8 0
-8 5 1 15 20 24 4 45 -35 45 l-35 0 0 -60z m58 33 c-2 -10 -13 -19 -26 -21
-17 -3 -22 2 -22 17 0 16 6 21 26 21 19 0 25 -5 22 -17z m1 -42 c12 -8 12 -12
2 -25 -24 -29 -60 -13 -47 19 6 17 24 19 45 6z"/>
<path d="M2170 361 c-25 -48 -4 -101 40 -101 19 0 33 7 40 19 14 26 13 74 -2
89 -19 19 -66 15 -78 -7z m68 -37 c2 -31 -1 -43 -14 -48 -24 -9 -44 12 -44 49
0 38 7 47 35 43 16 -2 21 -12 23 -44z"/>
<path d="M2305 335 c-4 -24 -13 -50 -21 -56 -8 -6 -14 -21 -14 -33 1 -20 2
-20 14 -3 9 11 27 17 54 17 30 0 42 -5 46 -17 3 -10 3 0 1 22 -3 22 -5 57 -5
78 0 36 -1 37 -34 37 -33 0 -35 -2 -41 -45z m55 -10 c0 -42 -2 -45 -26 -45
-22 0 -25 3 -20 23 3 12 6 32 6 45 0 15 6 22 20 22 17 0 20 -7 20 -45z"/>
<path d="M2480 320 c0 -33 4 -60 10 -60 6 0 10 15 10 33 l1 32 29 -34 c34 -39
51 -38 20 2 -24 30 -25 41 -5 57 8 7 15 18 15 24 0 6 -12 -1 -25 -16 -30 -34
-35 -35 -35 -3 0 14 -4 25 -10 25 -6 0 -10 -27 -10 -60z"/>
<path d="M2602 368 c-16 -16 -16 -69 1 -92 9 -12 23 -17 42 -14 61 7 60 110 0
116 -17 2 -36 -3 -43 -10z m66 -39 c3 -39 -15 -63 -41 -53 -38 14 -24 98 16
92 17 -2 23 -10 25 -39z"/>
<path d="M2720 320 c0 -33 4 -60 10 -60 6 0 10 19 10 43 l0 42 19 -29 19 -28
17 26 c10 15 15 29 12 33 -4 3 -9 -2 -13 -11 -9 -23 -17 -20 -37 14 -27 45
-37 37 -37 -30z"/>
<path d="M2817 373 c-7 -15 5 -113 14 -113 5 0 9 27 9 60 0 52 -11 76 -23 53z"/>
<path d="M2882 318 l2 -63 3 58 c4 55 5 57 33 57 28 0 29 -2 33 -57 l3 -58 2
63 2 62 -40 0 -40 0 2 -62z"/>
<path d="M3012 368 c-17 -17 -15 -83 2 -98 41 -33 99 23 80 77 -7 21 -17 29
-39 31 -17 2 -36 -3 -43 -10z m56 -10 c26 -26 8 -88 -25 -88 -23 0 -38 46 -25
75 13 27 31 32 50 13z"/>
<path d="M3126 372 c-2 -4 7 -8 21 -7 34 0 41 -22 11 -34 -15 -6 -17 -10 -7
-10 9 -1 22 -7 28 -15 15 -18 -11 -40 -39 -31 -11 4 -20 2 -20 -4 0 -12 39
-15 64 -5 18 7 22 54 5 54 -8 0 -8 5 1 15 19 23 4 45 -29 45 -16 0 -32 -4 -35
-8z"/>
<path d="M3242 321 l-2 -65 33 44 32 45 3 -43 c5 -64 22 -50 22 18 0 33 -3 60
-7 60 -5 0 -21 -19 -38 -43 l-30 -42 -6 45 c-6 42 -6 41 -7 -19z"/>
<path d="M3363 373 c13 -4 17 -15 17 -59 0 -30 5 -54 10 -54 6 0 10 24 10 54
0 49 2 55 23 59 12 2 0 4 -28 4 -27 1 -42 -1 -32 -4z"/>
<path d="M3462 320 c0 -44 2 -55 7 -35 5 23 12 31 34 33 24 3 27 0 27 -27 0
-17 5 -31 10 -31 6 0 10 27 10 60 0 33 -4 60 -10 60 -5 0 -10 -12 -10 -26 0
-22 -4 -25 -27 -22 -19 2 -29 10 -34 28 -4 16 -7 1 -7 -40z"/>
<path d="M3591 323 l-1 -63 29 0 c58 0 69 58 14 74 -20 6 -34 18 -36 30 -2 12
-5 -7 -6 -41z m57 -24 c3 -17 -23 -33 -39 -23 -5 3 -9 14 -9 25 0 15 6 20 22
17 13 -2 24 -10 26 -19z"/>
<path d="M3690 320 c0 -33 4 -60 10 -60 6 0 10 27 10 60 0 33 -4 60 -10 60 -6
0 -10 -27 -10 -60z"/>
<path d="M3756 351 c16 -28 16 -31 1 -55 -25 -37 -20 -46 7 -13 l23 28 17 -25
c9 -14 21 -26 27 -26 6 0 0 14 -12 31 -21 30 -21 32 -5 60 20 34 12 38 -14 7
l-17 -22 -12 22 c-6 12 -16 22 -22 22 -6 0 -2 -13 7 -29z"/>
<path d="M2202 168 c6 -18 60 -17 66 2 5 13 3 13 -12 1 -14 -12 -21 -13 -38
-2 -16 10 -19 10 -16 -1z"/>
<path d="M1138 123 c20 -4 22 -10 22 -59 0 -30 5 -54 10 -54 6 0 10 24 10 54
0 44 4 55 18 59 9 3 -5 5 -33 4 -27 0 -40 -2 -27 -4z"/>
<path d="M1229 104 c-10 -27 -5 -59 13 -81 12 -15 68 -17 68 -3 0 5 -6 7 -14
4 -19 -7 -56 13 -56 31 0 11 12 15 40 15 28 0 40 4 40 14 0 33 -13 46 -46 46
-28 0 -36 -5 -45 -26z m69 -7 c3 -13 -3 -17 -27 -17 -33 0 -39 8 -19 28 17 17
42 11 46 -11z"/>
<path d="M1359 101 c21 -29 21 -29 1 -54 -21 -27 -25 -37 -12 -37 4 0 15 12
23 27 l17 26 17 -26 c9 -15 22 -27 27 -27 5 0 0 14 -12 30 -20 29 -21 32 -6
55 22 34 19 45 -5 16 l-20 -24 -15 21 c-8 12 -20 22 -25 22 -6 0 -1 -13 10
-29z"/>
<path d="M1473 70 c-1 -43 2 -55 6 -35 5 23 12 31 34 33 24 3 27 0 27 -27 0
-17 5 -31 10 -31 6 0 10 27 10 60 0 33 -4 60 -10 60 -5 0 -10 -11 -10 -25 0
-21 -5 -25 -29 -25 -25 0 -30 5 -34 28 -2 15 -4 -2 -4 -38z"/>
<path d="M1600 111 c-24 -47 -4 -101 38 -101 38 0 52 17 52 60 0 20 -5 41 -12
48 -19 19 -66 15 -78 -7z m70 -15 c17 -46 -14 -91 -46 -65 -14 12 -19 70 -7
82 15 15 44 6 53 -17z"/>
<path d="M1737 123 c-4 -3 -7 -22 -7 -41 0 -20 -7 -44 -17 -54 -15 -16 -15
-18 0 -18 16 0 37 53 37 93 0 10 8 17 20 17 16 0 20 -8 23 -57 l3 -58 2 63 c2
62 2 62 -26 62 -16 0 -32 -3 -35 -7z"/>
<path d="M1852 118 c-15 -15 -16 -80 0 -96 39 -39 98 13 82 71 -8 26 -16 33
-39 35 -17 2 -36 -3 -43 -10z m56 -10 c26 -26 8 -88 -25 -88 -23 0 -38 46 -25
75 13 27 31 32 50 13z"/>
<path d="M1970 70 c0 -33 4 -60 10 -60 6 0 10 24 10 54 0 52 1 55 28 59 22 3
20 4 -10 6 l-38 1 0 -60z"/>
<path d="M2062 70 l-1 -65 19 25 c54 71 49 69 50 23 0 -24 5 -43 10 -43 6 0
10 27 10 63 l-1 62 -39 -45 -39 -45 -4 45 c-3 36 -4 33 -5 -20z"/>
<path d="M2192 70 l-1 -65 19 25 c54 71 49 69 50 23 0 -24 5 -43 10 -43 6 0
10 27 10 60 0 33 -3 60 -7 60 -5 -1 -21 -20 -38 -43 l-30 -42 -6 45 c-6 42 -6
40 -7 -20z"/>
</g>
</svg>
