<?xml version="1.0" encoding="UTF-8"?>
<!DOCTYPE svg PUBLIC "-//W3C//DTD SVG 1.1//EN" "http://www.w3.org/Graphics/SVG/1.1/DTD/svg11.dtd">
<!-- Creator: CorelDRAW X8 -->
<svg xmlns="http://www.w3.org/2000/svg" xml:space="preserve" width="156.707mm" height="40.8036mm" version="1.1" style="shape-rendering:geometricPrecision; text-rendering:geometricPrecision; image-rendering:optimizeQuality; fill-rule:evenodd; clip-rule:evenodd"
viewBox="0 0 15671 4080"
 xmlns:xlink="http://www.w3.org/1999/xlink">
 <defs>
  <style type="text/css">
   <![CDATA[
    .fil2 {fill:#37474F}
    .fil1 {fill:#FFCC00}
    .fil0 {fill:#37474F;fill-rule:nonzero}
   ]]>
  </style>
 </defs>
 <g id="Слой_x0020_1">
  <metadata id="CorelCorpID_0Corel-Layer"/>
  <g id="_482704302592">
   <path class="fil0" d="M4907 2671l-214 0 0 415 -77 0 0 -483 368 0 0 483 -77 0 0 -415zm467 215l-75 12 -127 188 -94 0 116 -165 39 -36c-34,-5 -62,-19 -86,-40 -23,-22 -35,-52 -35,-89 0,-29 5,-54 15,-75 10,-20 24,-38 43,-51 18,-14 41,-23 66,-30 26,-6 55,-9 87,-9 24,0 47,2 67,5 21,3 41,7 61,11l0 479 -77 0 0 -200zm0 -217c-9,-4 -18,-6 -28,-8 -11,-1 -20,-2 -27,-2 -42,0 -73,7 -95,22 -21,15 -32,39 -32,71 0,29 11,51 34,67 23,16 53,24 91,24 0,0 1,0 3,0 1,0 3,0 7,0 4,0 10,-1 17,-1 7,0 17,-1 30,-1l0 -172zm527 2l-152 0 0 415 -77 0 0 -415 -152 0 0 -68 381 0 0 68zm153 348c24,3 47,5 69,5 41,0 69,-7 85,-23 16,-16 24,-38 24,-67 0,-26 -8,-48 -23,-64 -16,-17 -44,-25 -83,-25 -11,0 -23,0 -36,1 -13,0 -25,2 -36,5l0 168zm0 -231c16,-3 31,-5 45,-6 14,-1 28,-1 40,-1 33,0 61,3 83,11 22,7 40,17 54,30 13,13 23,29 28,46 6,18 9,37 9,57 0,58 -17,101 -49,127 -33,27 -86,40 -158,40 -42,0 -84,-2 -129,-6l0 -483 77 0 0 185zm335 -185l77 0 0 483 -77 0 0 -483zm528 197l3 -60 -3 0 -40 62 -217 284 -45 0 0 -483 77 0 0 295 -2 57 3 0 38 -60 218 -292 45 0 0 483 -77 0 0 -286zm-191 -392c7,29 18,50 34,61 15,12 34,18 54,18 21,0 39,-6 55,-19 16,-12 27,-32 33,-59l58 18c-6,37 -22,66 -50,86 -27,20 -60,30 -98,30 -17,0 -34,-2 -51,-7 -17,-4 -33,-11 -46,-20 -14,-9 -25,-21 -35,-35 -10,-14 -16,-31 -19,-50l65 -23zm722 463l0 -63 67 0c12,0 23,-2 35,-6 11,-4 21,-9 30,-16 9,-7 16,-15 22,-24 5,-9 8,-19 8,-30 0,-25 -9,-42 -26,-53 -18,-10 -44,-15 -78,-15 -26,0 -49,3 -70,11 -21,8 -37,15 -48,22l-23 -59c20,-11 42,-21 69,-29 26,-9 57,-13 93,-13 107,0 160,40 160,119 0,23 -7,45 -21,66 -15,22 -36,37 -63,46l0 4c38,7 65,21 80,41 15,20 23,46 23,79 0,21 -5,40 -13,57 -8,17 -21,33 -38,45 -16,13 -37,23 -63,31 -25,7 -55,11 -88,11 -33,0 -61,-3 -82,-9 -22,-6 -41,-13 -59,-21l23 -64c14,9 32,15 53,20 21,4 44,6 68,6 40,0 70,-6 90,-20 21,-14 31,-34 31,-62 0,-23 -9,-41 -29,-54 -19,-14 -51,-20 -95,-20l-56 0zm372 -232c24,-15 53,-26 85,-33 33,-7 67,-11 102,-11 34,0 61,5 81,14 20,9 36,20 46,35 11,14 18,30 22,48 3,17 5,35 5,52 0,39 -1,76 -3,113 -2,37 -3,72 -3,105 0,23 1,46 3,67 2,22 6,41 11,59l-57 0 -21 -67 -4 0c-6,9 -13,17 -22,26 -9,9 -19,17 -32,23 -12,7 -26,13 -42,17 -16,5 -35,7 -55,7 -21,0 -40,-3 -58,-10 -17,-6 -33,-15 -46,-27 -13,-12 -23,-26 -30,-43 -8,-17 -11,-36 -11,-57 0,-29 6,-52 17,-71 12,-19 28,-34 49,-46 21,-11 46,-19 75,-24 30,-5 62,-7 98,-7 9,0 17,0 26,0 9,0 18,0 27,2 2,-20 3,-37 3,-52 0,-36 -7,-61 -22,-75 -14,-14 -40,-21 -77,-21 -11,0 -23,1 -35,2 -13,2 -26,4 -39,7 -13,3 -26,7 -38,11 -12,4 -22,9 -31,15l-24 -59zm137 387c18,0 34,-2 48,-7 15,-5 27,-11 37,-18 10,-8 19,-16 26,-25 6,-9 11,-18 15,-26l0 -80c-9,-1 -18,-1 -28,-2 -9,0 -18,0 -27,0 -20,0 -40,1 -59,3 -19,2 -36,7 -50,13 -15,6 -26,14 -35,25 -9,11 -13,24 -13,40 0,23 8,41 24,56 16,14 37,21 62,21zm350 -422c23,-1 46,-3 71,-5 25,-2 56,-3 92,-3 64,0 110,10 138,30 27,19 41,49 41,89 0,23 -6,45 -20,66 -13,22 -35,38 -65,48l0 4c38,7 65,20 80,40 16,19 24,45 24,77 0,50 -18,87 -55,109 -36,23 -90,34 -162,34 -27,0 -52,-1 -75,-2 -24,-2 -46,-4 -69,-6l0 -481zm77 418c13,1 25,2 37,2 12,1 26,1 42,1 43,0 75,-6 96,-18 21,-12 31,-33 31,-63 0,-23 -9,-42 -26,-56 -18,-15 -49,-22 -95,-22l-85 0 0 156zm95 -215c12,0 23,-2 34,-6 11,-4 21,-9 29,-16 9,-7 16,-15 22,-24 5,-9 8,-18 8,-29 0,-25 -8,-43 -23,-53 -16,-10 -43,-15 -82,-15 -20,0 -36,0 -48,1 -12,0 -24,1 -35,2l0 140 95 0zm283 38c0,-82 19,-145 55,-188 36,-44 89,-66 157,-66 36,0 68,6 94,18 27,12 49,29 67,51 17,23 30,49 38,81 9,31 13,66 13,104 0,81 -18,144 -55,188 -36,43 -89,65 -157,65 -36,0 -67,-6 -94,-18 -27,-12 -49,-29 -66,-51 -18,-22 -31,-49 -39,-80 -8,-32 -13,-66 -13,-104zm81 0c0,24 2,48 7,70 5,23 12,42 23,59 10,17 23,30 40,41 17,10 37,15 61,15 88,1 132,-61 132,-185 0,-26 -3,-49 -8,-72 -5,-23 -12,-42 -22,-59 -11,-17 -24,-30 -41,-40 -17,-10 -37,-15 -61,-15 -88,-1 -131,61 -131,186zm886 364l-52 0 -15 -123 -363 0 -15 123 -52 0 0 -190 57 0c5,-7 12,-20 21,-39 8,-18 16,-44 24,-77 8,-33 15,-74 21,-124 7,-49 10,-108 12,-176l292 0 0 416 70 0 0 190zm-148 -190l0 -348 -145 0c-1,27 -3,56 -7,88 -3,32 -7,64 -13,96 -5,32 -12,62 -20,90 -9,28 -18,53 -29,74l214 0zm624 -150l-45 0 0 217 -77 0 0 -483 77 0 0 218 42 -13 155 -205 84 0 -150 194 -41 32 51 39 161 218 -96 0 -161 -217zm302 -24c0,-82 19,-145 55,-188 36,-44 89,-66 157,-66 36,0 68,6 94,18 27,12 49,29 67,51 17,23 30,49 38,81 9,31 13,66 13,104 0,81 -18,144 -55,188 -36,43 -89,65 -157,65 -36,0 -67,-6 -94,-18 -27,-12 -49,-29 -66,-51 -18,-22 -31,-49 -39,-80 -8,-32 -13,-66 -13,-104zm81 0c0,24 2,48 7,70 5,23 12,42 23,59 10,17 23,30 40,41 17,10 37,15 61,15 88,1 132,-61 132,-185 0,-26 -3,-49 -8,-72 -4,-23 -12,-42 -22,-59 -11,-17 -24,-30 -41,-40 -17,-10 -37,-15 -61,-15 -88,-1 -131,61 -131,186zm864 -46l6 -92 -5 0 -35 75 -117 189 -27 0 -122 -189 -32 -75 -3 0 7 91 0 288 -71 0 0 -483 76 0 135 216 28 57 2 0 29 -58 127 -215 77 0 0 483 -75 0 0 -287zm515 -128l-213 0 0 415 -78 0 0 -483 369 0 0 483 -78 0 0 -415zm199 174c0,-82 19,-145 55,-188 36,-44 89,-66 157,-66 36,0 68,6 94,18 27,12 49,29 67,51 17,23 30,49 38,81 9,31 13,66 13,104 0,81 -18,144 -55,188 -36,43 -89,65 -157,65 -36,0 -67,-6 -94,-18 -27,-12 -49,-29 -66,-51 -18,-22 -31,-49 -39,-80 -8,-32 -13,-66 -13,-104zm81 0c0,24 2,48 7,70 5,23 12,42 23,59 10,17 24,30 40,41 17,10 37,15 61,15 88,1 132,-61 132,-185 0,-26 -3,-49 -8,-72 -4,-23 -12,-42 -22,-59 -11,-17 -24,-30 -41,-40 -17,-10 -37,-15 -61,-15 -87,-1 -131,61 -131,186zm511 26l0 -63 68 0c11,0 23,-2 34,-6 11,-4 22,-9 31,-16 9,-7 16,-15 21,-24 6,-9 9,-19 9,-30 0,-25 -9,-42 -27,-53 -17,-10 -43,-15 -78,-15 -25,0 -48,3 -69,11 -21,8 -37,15 -49,22l-22 -59c19,-11 42,-21 68,-29 26,-9 57,-13 93,-13 107,0 161,40 161,119 0,23 -7,45 -22,66 -14,22 -35,37 -62,46l0 4c38,7 64,21 80,41 15,20 22,46 22,79 0,21 -4,40 -12,57 -9,17 -21,33 -38,45 -17,13 -38,23 -63,31 -26,7 -55,11 -89,11 -33,0 -60,-3 -81,-9 -22,-6 -42,-13 -59,-21l22 -64c15,9 33,15 54,20 21,4 44,6 68,6 39,0 69,-6 90,-20 21,-14 31,-34 31,-62 0,-23 -10,-41 -29,-54 -19,-14 -51,-20 -96,-20l-56 0zm682 -71l3 -60 -3 0 -40 62 -217 284 -45 0 0 -483 77 0 0 295 -2 57 3 0 38 -60 218 -292 45 0 0 483 -77 0 0 -286zm534 -129l-151 0 0 415 -78 0 0 -415 -152 0 0 -68 381 0 0 68zm373 202l-219 0 0 213 -77 0 0 -483 77 0 0 202 219 0 0 -202 77 0 0 483 -77 0 0 -213zm303 146c24,3 47,5 69,5 40,0 69,-7 85,-23 16,-16 24,-38 24,-67 0,-26 -8,-48 -24,-64 -15,-17 -43,-25 -82,-25 -11,0 -23,0 -36,1 -13,0 -25,2 -36,5l0 168zm0 -231c16,-3 30,-5 45,-6 14,-1 27,-1 40,-1 33,0 61,3 83,11 22,7 40,17 54,30 13,13 23,29 28,46 6,18 8,37 8,57 0,58 -16,101 -49,127 -32,27 -85,40 -158,40 -41,0 -84,-2 -128,-6l0 -483 77 0 0 185zm335 -185l77 0 0 483 -77 0 0 -483zm353 236l-163 -236 95 0 92 133 27 55 28 -55 94 -133 87 0 -164 232 173 251 -92 0 -102 -147 -29 -58 -30 58 -104 147 -87 0 175 -247zm-10414 814l-152 0 0 416 -77 0 0 -416 -152 0 0 -68 381 0 0 68zm414 377c-19,16 -44,28 -73,37 -29,9 -60,13 -93,13 -37,0 -69,-6 -96,-18 -27,-11 -49,-29 -67,-51 -17,-22 -30,-49 -38,-80 -9,-30 -13,-65 -13,-104 0,-82 18,-145 55,-188 37,-44 89,-65 158,-65 22,0 44,2 65,7 22,5 42,14 59,28 18,13 32,32 43,57 11,25 16,58 16,98 0,21 -2,45 -5,71l-311 0c0,28 3,53 9,75 6,22 15,41 27,56 12,15 28,27 48,35 20,8 44,12 72,12 22,0 44,-4 66,-12 22,-8 38,-17 49,-27l29 56zm-166 -389c-38,0 -69,10 -92,30 -23,20 -36,55 -41,103l240 0c0,-49 -9,-83 -28,-103 -19,-20 -45,-30 -79,-30zm410 180l-163 -236 95 0 92 134 27 55 28 -55 94 -134 87 0 -164 232 173 252 -91 0 -103 -147 -29 -58 -30 58 -104 147 -86 0 174 -248zm667 34l-219 0 0 214 -77 0 0 -484 77 0 0 202 219 0 0 -202 77 0 0 484 -77 0 0 -214zm199 -28c0,-82 18,-144 54,-188 37,-43 89,-65 158,-65 36,0 67,6 94,18 27,12 49,29 66,51 17,22 30,49 39,80 8,31 12,66 12,104 0,82 -18,145 -54,188 -37,44 -89,65 -157,65 -36,0 -68,-6 -95,-18 -26,-11 -48,-29 -66,-51 -17,-22 -30,-49 -39,-80 -8,-31 -12,-66 -12,-104zm80 0c0,25 3,48 7,71 5,22 13,42 23,59 10,16 24,30 41,40 16,11 37,16 61,16 87,0 131,-62 131,-186 0,-25 -2,-49 -7,-71 -5,-23 -13,-43 -23,-59 -10,-17 -24,-31 -40,-41 -17,-10 -38,-15 -61,-15 -88,0 -132,62 -132,186zm719 -174l-140 0c-2,27 -4,56 -6,88 -2,31 -4,62 -8,93 -4,32 -9,62 -16,90 -6,29 -14,54 -24,76 -10,22 -23,40 -37,53 -15,13 -32,20 -52,20 -12,0 -23,-1 -32,-2 -9,-2 -17,-4 -24,-7l12 -65c7,3 16,4 25,4 13,0 24,-5 35,-16 10,-11 19,-32 27,-63 7,-30 14,-73 19,-127 5,-54 9,-125 11,-212l288 0 0 484 -78 0 0 -416zm200 174c0,-82 18,-144 54,-188 37,-43 89,-65 157,-65 36,0 68,6 95,18 26,12 48,29 66,51 17,22 30,49 38,80 9,31 13,66 13,104 0,82 -18,145 -55,188 -36,44 -88,65 -157,65 -36,0 -67,-6 -94,-18 -27,-11 -49,-29 -66,-51 -18,-22 -30,-49 -39,-80 -8,-31 -12,-66 -12,-104zm80 0c0,25 2,48 7,71 5,22 12,42 23,59 10,16 24,30 40,40 17,11 37,16 61,16 88,0 132,-62 132,-186 0,-25 -3,-49 -7,-71 -5,-23 -13,-43 -23,-59 -11,-17 -24,-31 -41,-41 -17,-10 -37,-15 -61,-15 -87,0 -131,62 -131,186zm747 -174l-205 0 0 416 -77 0 0 -484 282 0 0 68zm376 130l3 -60 -3 0 -39 62 -218 284 -44 0 0 -484 77 0 0 295 -3 57 4 0 38 -60 217 -292 46 0 0 484 -78 0 0 -286zm528 0l3 -60 -3 0 -40 62 -217 284 -45 0 0 -484 78 0 0 295 -3 57 4 0 37 -60 218 -292 45 0 0 484 -77 0 0 -286zm-190 -393c6,30 17,50 33,62 16,12 34,17 55,17 20,0 39,-6 55,-18 16,-12 27,-32 33,-60l58 18c-6,38 -23,66 -50,86 -28,20 -60,30 -98,30 -18,0 -35,-2 -52,-6 -17,-5 -32,-12 -46,-21 -13,-9 -25,-20 -35,-34 -9,-15 -16,-31 -19,-51l66 -23z"/>
   <path class="fil1" d="M6599 1568c-124,307 -175,385 -345,402l-1711 0 160 -402c123,-308 174,-386 345,-402l424 0 676 0 119 -302 159 -402 -1285 0 13 -35c64,-160 139,-427 359,-427l1517 0c105,0 149,92 116,187l-109 275c-124,307 -175,385 -345,402l-425 0 -675 0 -120 302 -159 402 1286 0z"/>
   <path class="fil1" d="M10384 462l-643 0 13 -35c64,-160 139,-427 359,-427l1517 0c105,0 149,92 116,187l-109 275 -643 0 -438 1106c-124,307 -175,385 -345,402l-425 0 598 -1508z"/>
   <path class="fil1" d="M7544 1969l-610 0 611 -1542c63,-160 139,-427 359,-427l421 0 -311 784 610 0 311 -784 421 0c105,0 149,92 115,187l-110 275c-101,241 -158,307 -312,322l-425 0c-123,307 -174,385 -345,402l-424 0 -311 783zm898 -724l421 0c104,0 149,92 115,187l-54 135c-123,308 -175,386 -345,402l-424 0 287 -724z"/>
   <path class="fil1" d="M12290 889c64,-161 139,-427 360,-427l554 0 183 461 -500 0 -255 645c-124,307 -175,385 -345,402l-425 0 428 -1081z"/>
   <polygon class="fil2" points="11643,1568 11484,1969 11040,1969 11199,1568 "/>
   <path class="fil1" d="M13779 889c64,-160 139,-427 360,-427l420 0 -438 1105 501 0 438 -1105 611 0 -287 723c-123,308 -167,366 -337,382l-425 0c-123,308 -174,386 -345,403l-926 0c204,-515 226,-567 428,-1081z"/>
   <path class="fil2" d="M1214 733c109,-275 238,-733 616,-733l2603 0c179,0 256,158 198,320l-187 472 -2207 0 -273 690 1160 0 1047 0 -752 1897c-212,527 -300,661 -592,690l-1888 0 -722 0c-180,0 -256,-158 -198,-320l266 -692 1055 0 -127 322 1159 0 487 -1230 -1159 0 -1047 0 264 -667 297 -749z"/>
  </g>
 </g>
</svg>
