<?xml version="1.0" standalone="no"?>
<!DOCTYPE svg PUBLIC "-//W3C//DTD SVG 20010904//EN"
 "http://www.w3.org/TR/2001/REC-SVG-20010904/DTD/svg10.dtd">
<svg version="1.0" xmlns="http://www.w3.org/2000/svg"
 width="386.000000pt" height="102.000000pt" viewBox="0 0 386.000000 102.000000"
 preserveAspectRatio="xMidYMid meet">
<metadata>
Created by potrace 1.13, written by Peter Selinger 2001-2015
</metadata>
<g transform="translate(0.000000,102.000000) scale(0.100000,-0.100000)"
fill="#000000" stroke="none">
<path d="M396 989 c-35 -28 -46 -49 -142 -291 l-82 -208 270 0 c253 0 270 -1
264 -17 -4 -10 -30 -78 -59 -150 l-52 -133 -144 0 c-110 0 -142 3 -138 13 2 6
7 22 11 35 l8 23 -128 -3 -127 -3 -33 -85 c-38 -97 -40 -112 -18 -135 14 -14
56 -15 371 -13 l355 3 28 33 c17 20 72 146 138 310 l110 277 -270 3 c-148 1
-268 6 -266 10 2 5 16 43 33 85 l30 77 271 0 271 0 28 71 c22 58 25 75 16 95
l-11 24 -353 0 c-344 0 -355 -1 -381 -21z"/>
</g>
</svg>
